<svg width="92" height="100" viewBox="0 0 92 100" fill="none" xmlns="http://www.w3.org/2000/svg">
<path d="M28.4356 74.9569H45.8365C46.9407 74.953 47.9985 74.5123 48.7789 73.7312L62.1024 60.4077C62.2965 60.2137 62.4505 59.9834 62.5556 59.7299C62.6606 59.4764 62.7147 59.2047 62.7147 58.9302C62.7147 58.6558 62.6606 58.3841 62.5556 58.1306C62.4505 57.8771 62.2965 57.6468 62.1024 57.4528L56.2208 51.5618C56.0269 51.3677 55.7965 51.2137 55.543 51.1087C55.2895 51.0036 55.0178 50.9496 54.7434 50.9496C54.469 50.9496 54.1973 51.0036 53.9437 51.1087C53.6902 51.2137 53.4599 51.3677 53.2659 51.5618L43.6071 61.2207C43.219 61.6095 42.7579 61.9176 42.2502 62.1275C41.7426 62.3373 41.1984 62.4446 40.6491 62.4433H33.6137C33.065 62.4435 32.5216 62.3357 32.0146 62.1259C31.5076 61.9161 31.0469 61.6085 30.6588 61.2207L13.7238 44.2825C12.9439 43.4969 12.5066 42.4346 12.5074 41.3276V40.9837C12.5083 39.8758 12.9479 38.8134 13.73 38.0288L38.0257 13.7363C38.8031 12.9541 39.859 12.5122 40.9618 12.5074H68.697C69.2457 12.5072 69.789 12.615 70.296 12.8248C70.803 13.0346 71.2637 13.3422 71.6518 13.73L88.4212 30.5025C88.7133 30.7954 89.0858 30.995 89.4916 31.0759C89.8973 31.1569 90.3179 31.1155 90.7 30.9571C91.0822 30.7986 91.4087 30.5303 91.6382 30.186C91.8676 29.8418 91.9897 29.4372 91.9889 29.0235V18.0795C91.9882 16.971 91.5473 15.9081 90.7632 15.1246L76.8362 1.2226C76.052 0.439869 74.9893 0.000179634 73.8813 0L35.7868 0C34.679 0.000863365 33.6166 0.440449 32.832 1.2226L1.2226 32.832C0.439685 33.6173 3.63496e-05 34.681 4.53693e-08 35.79V46.5213C-0.000163082 47.6294 0.439578 48.6922 1.2226 49.4762L25.4807 73.7343C26.2647 74.5174 27.3275 74.9571 28.4356 74.9569Z" fill="black"/>
<path d="M63.5533 25.043H46.1524C45.0445 25.0438 43.9821 25.4834 43.1975 26.2656L29.874 39.5922C29.6799 39.7862 29.5259 40.0165 29.4209 40.27C29.3158 40.5235 29.2617 40.7952 29.2617 41.0697C29.2617 41.3441 29.3158 41.6158 29.4209 41.8693C29.5259 42.1228 29.6799 42.3531 29.874 42.5471L35.7681 48.4381C35.9621 48.6322 36.1924 48.7862 36.4459 48.8912C36.6994 48.9963 36.9711 49.0503 37.2456 49.0503C37.52 49.0503 37.7917 48.9963 38.0452 48.8912C38.2987 48.7862 38.529 48.6322 38.723 48.4381L48.3818 38.773C48.7697 38.3849 49.2304 38.0771 49.7375 37.8673C50.2445 37.6575 50.788 37.5498 51.3367 37.5504H58.3721C58.9208 37.5501 59.4642 37.658 59.9712 37.8678C60.4782 38.0775 60.9389 38.3851 61.327 38.773L78.2652 55.7112C79.0473 56.4957 79.4869 57.5582 79.4878 58.666V59.01C79.4869 60.1178 79.0473 61.1803 78.2652 61.9649L53.9695 86.2574C53.5818 86.6458 53.1212 86.9538 52.6141 87.1636C52.107 87.3734 51.5634 87.4809 51.0147 87.48H23.292C22.7416 87.4827 22.1962 87.3766 21.6869 87.1679C21.1777 86.9592 20.7147 86.6519 20.3246 86.2636L3.56778 69.4912C3.27509 69.1977 2.90168 68.9979 2.49509 68.9172C2.08849 68.8366 1.6671 68.8788 1.28454 69.0384C0.901978 69.1979 0.575554 69.4678 0.346814 69.8134C0.118074 70.1591 -0.00263715 70.5651 4.37034e-05 70.9796V81.9236C0.000709973 83.0321 0.441602 84.0949 1.22577 84.8784L15.1528 98.7773C15.9374 99.5595 16.9998 99.999 18.1077 99.9999H56.2021C57.31 99.999 58.3724 99.5595 59.157 98.7773L90.7663 67.1648C91.5485 66.3802 91.9881 65.3178 91.9889 64.2099V53.4692C91.9891 52.3611 91.5494 51.2983 90.7663 50.5143L66.5082 26.2656C65.7242 25.4825 64.6614 25.0428 63.5533 25.043Z" fill="black"/>
</svg>
